<svg version="1.1" id="Layer_1" xmlns="http://www.w3.org/2000/svg" xmlns:xlink="http://www.w3.org/1999/xlink" x="0px" y="0px"
	 width="100%" viewBox="0 0 424 324" enable-background="new 0 0 424 324" xml:space="preserve">
<path fill="#FFFFFE" opacity="1.000000" stroke="none" 
	d="
M258.000000,325.000000 
	C172.000000,325.000000 86.500000,325.000000 1.000000,325.000000 
	C1.000000,217.000000 1.000000,109.000000 1.000000,1.000000 
	C142.333328,1.000000 283.666656,1.000000 425.000000,1.000000 
	C425.000000,109.000000 425.000000,217.000000 425.000000,325.000000 
	C369.500000,325.000000 314.000000,325.000000 258.000000,325.000000 
M323.320190,31.990479 
	C322.880127,31.994465 322.440063,31.998451 321.488739,31.440430 
	C316.097412,30.720711 313.796143,32.975243 312.000214,39.445148 
	C310.371796,45.311695 308.395416,51.123501 306.049164,56.740891 
	C299.741913,71.841858 287.901642,82.912163 276.870575,94.256248 
	C265.687469,105.756706 252.843262,115.625870 240.991852,126.498634 
	C234.161423,132.764984 228.175537,139.966293 221.227798,146.086380 
	C213.798477,152.630707 205.230835,157.869400 194.829102,156.719833 
	C190.839447,156.278915 187.187515,155.426910 182.863617,156.899490 
	C173.886627,147.854019 164.909637,138.808548 155.888962,129.719055 
	C119.692024,165.908829 83.904221,201.641220 48.255894,237.512222 
	C46.868057,238.908737 46.247372,241.629242 46.231396,243.740097 
	C46.081543,263.542725 46.137272,283.346924 46.152084,303.150696 
	C46.152985,304.351868 46.311104,305.552887 46.396065,306.753998 
	C46.949883,307.148773 47.503704,307.543549 48.057522,307.938324 
	C60.590340,294.912109 73.123154,281.885895 86.286392,269.127747 
	C87.724617,272.291046 88.352524,276.531189 90.790573,278.365814 
	C94.467194,281.132416 97.417381,283.215820 94.642975,288.268860 
	C97.569649,288.958069 99.784523,289.479645 101.999466,290.669098 
	C102.000664,291.114349 102.001862,291.559631 102.018005,292.015137 
	C102.018005,292.015137 102.022743,292.033630 101.335823,292.078522 
	C100.569756,293.062012 99.803688,294.045471 98.948463,295.714355 
	C97.966431,297.479340 96.984390,299.244354 95.637108,301.479309 
	C95.293900,301.965637 94.950684,302.451965 94.046478,303.052429 
	C93.701279,303.694824 93.356079,304.337189 93.024498,305.751282 
	C93.391808,306.432007 93.690971,307.655579 94.136711,307.711548 
	C100.219383,308.475098 106.367638,309.891907 112.411217,309.555817 
	C126.684921,308.762115 140.876099,308.281647 155.750397,311.000000 
	C156.500183,311.000000 157.249985,311.000000 158.731827,310.999817 
	C159.821213,310.666534 160.910599,310.333252 162.819473,310.000305 
	C166.987518,309.666809 171.159119,309.019104 175.322845,309.066376 
	C183.564682,309.160004 191.800430,309.806854 200.042114,309.890472 
	C204.691254,309.937622 209.347153,309.318817 214.937317,309.000031 
	C231.037216,309.332001 247.136673,309.690430 263.237518,309.966705 
	C265.583435,310.006927 268.542755,310.825104 269.750854,307.002228 
	C270.500488,307.002716 271.250122,307.003174 272.103058,307.774445 
	C273.572998,308.515350 275.051819,309.909546 276.511444,309.889709 
	C285.085480,309.773438 293.675598,309.576752 302.216522,308.874908 
	C305.866669,308.574951 309.411163,306.989685 313.696716,305.990448 
	C314.480042,305.632996 315.263336,305.275543 316.974365,304.821808 
	C336.347687,304.807495 355.721710,304.862335 375.093292,304.671356 
	C377.016785,304.652405 378.925476,303.134064 380.936462,301.525238 
	C380.912842,301.262238 380.889221,300.999237 380.755219,299.837219 
	C380.805939,282.617889 380.856689,265.398560 381.006134,247.397537 
	C380.974274,246.874069 380.942444,246.350601 380.788177,245.173340 
	C380.826416,244.511963 380.864624,243.850571 380.996796,242.370300 
	C380.949432,241.823257 380.902069,241.276230 380.705536,240.324371 
	C380.638123,240.034409 380.658447,239.750748 380.920624,238.583115 
	C380.944061,237.394440 380.967499,236.205765 380.996613,234.134872 
	C382.578735,223.000854 381.244690,211.452835 386.426727,200.813797 
	C388.696930,196.152954 386.623016,192.137405 381.998199,189.061737 
	C381.994934,173.418411 382.024017,157.774933 381.942474,142.132019 
	C381.933502,140.412872 381.289825,138.697067 380.833649,136.239243 
	C380.885345,135.495209 380.937042,134.751190 381.558685,133.518494 
	C381.704956,132.013702 381.851257,130.508896 382.298126,128.390762 
	C386.916534,125.744797 388.661530,121.176552 390.222839,116.499031 
	C391.221771,113.506332 391.971802,110.402702 396.248688,110.613243 
	C396.788849,110.639847 397.414917,108.921249 398.508209,107.585121 
	C398.572906,106.954002 398.637634,106.322884 398.756104,104.861191 
	C401.803253,78.094933 404.850433,51.328682 407.974274,23.888687 
	C403.376801,24.190889 399.592194,24.325506 395.832886,24.708529 
	C385.284088,25.783318 374.745697,26.960556 363.839844,28.050354 
	C363.591614,28.062786 363.366241,28.141022 362.361084,28.641876 
	C360.908813,28.764507 359.456573,28.887138 357.689850,28.547327 
	C357.111450,28.750143 356.533020,28.952957 355.195618,29.327707 
	C353.119232,29.547548 351.042847,29.767387 348.460938,29.936827 
	C348.294708,29.969164 348.128510,30.001501 347.291290,30.152719 
	C346.610809,30.162218 345.930298,30.171717 344.369720,30.033499 
	C341.877350,30.468145 339.384979,30.902792 336.102753,31.659416 
	C334.391632,31.728785 332.680481,31.798153 330.473938,31.353632 
	C328.309265,31.562778 326.144623,31.771925 323.320190,31.990479 
M78.163528,53.282478 
	C77.829819,52.575146 77.657112,51.708675 77.138557,51.184055 
	C67.436218,41.368221 57.697929,31.587854 47.937950,21.829287 
	C47.574623,21.466013 46.916172,21.397903 46.066128,21.062305 
	C46.066128,42.629478 46.066128,63.730984 46.019562,85.720474 
	C46.314331,90.650734 46.837463,95.580933 46.838551,100.511261 
	C46.839603,105.279701 45.645546,110.132133 46.239231,114.786606 
	C46.620354,117.774612 49.286572,120.471146 50.592918,123.964859 
	C46.855289,126.656776 46.053238,130.279953 46.105698,134.803482 
	C46.325901,153.790161 46.141247,172.781464 46.125034,191.771088 
	C46.123863,193.145233 46.284130,194.519501 46.289917,194.612823 
	C75.132103,165.857346 104.304153,136.772980 134.163681,107.003212 
	C124.336334,97.449242 114.083084,87.481216 103.915474,76.717392 
	C103.790634,75.914055 103.941528,74.888252 103.499725,74.340637 
	C96.525391,65.696030 88.955948,57.764492 78.163528,53.282478 
z"/>
<path fill="#FDCC2E" opacity="1.000000" stroke="none" 
	d="
M94.607468,302.938263 
	C94.950684,302.451965 95.293900,301.965637 96.160904,301.215271 
	C100.810661,296.646088 104.936623,292.340942 109.323257,287.915588 
	C110.067337,287.216461 110.550743,286.637543 111.372498,286.013824 
	C116.152733,281.319672 120.594620,276.670288 125.301666,271.904633 
	C126.051033,271.203278 126.535240,270.618256 127.357758,269.990997 
	C132.142746,265.306091 136.589432,260.663391 141.301376,255.904541 
	C142.050903,255.203339 142.535172,254.618256 143.357666,253.990936 
	C148.140198,249.304428 152.584503,244.660187 157.293030,239.897125 
	C158.042557,239.193085 158.527863,238.607880 159.351654,237.982819 
	C164.137512,233.301270 168.584869,228.659546 173.296326,223.899231 
	C174.045334,223.195770 174.530243,222.610931 175.354019,221.983215 
	C180.133362,217.296646 184.573822,212.652969 189.280457,207.892029 
	C190.034378,207.188217 190.522156,206.601639 191.348297,205.975342 
	C196.129196,201.293533 200.571732,196.651428 205.280426,191.892029 
	C206.034363,191.188187 206.522141,190.601608 207.348251,189.975327 
	C214.142410,183.308304 220.598236,176.680984 227.383514,169.983276 
	C232.826721,164.626434 237.940460,159.339981 243.383667,153.983185 
	C248.826752,148.626450 253.940399,143.340073 259.383514,137.983307 
	C264.779602,132.589890 269.846222,127.266846 274.951111,121.967331 
	C274.989380,121.990860 274.944122,121.913223 275.287262,121.902893 
	C280.724030,116.575966 285.817657,111.259377 290.949890,105.966492 
	C290.988556,105.990189 290.943237,105.911659 291.286438,105.901917 
	C295.722473,101.584282 299.815277,97.276375 304.103241,92.807281 
	C304.519562,92.391899 304.740723,92.137703 305.281189,91.876144 
	C306.024628,91.221481 306.448792,90.574173 306.916382,89.945557 
	C306.959808,89.964249 306.924957,89.876305 307.268188,89.874161 
	C309.368469,87.890617 311.125549,85.909225 312.926147,83.947144 
	C312.969666,83.966446 312.930176,83.879845 313.252655,83.874298 
	C314.010193,83.222771 314.445251,82.576775 314.922821,81.949486 
	C314.965332,81.968185 314.930908,81.881920 315.272034,81.878273 
	C317.039246,80.237473 318.465302,78.600319 320.087769,76.800980 
	C320.509613,76.385254 320.734985,76.131721 321.279602,75.872513 
	C322.025299,75.221016 322.451721,74.575180 322.921173,73.949219 
	C322.964203,73.969086 322.927795,73.881554 323.270996,73.878166 
	C325.365479,71.889771 327.116791,69.904770 328.912750,67.935532 
	C328.957428,67.951294 328.921509,67.863602 329.242889,67.860764 
	C329.996155,67.216576 330.428070,66.575226 331.106293,65.836807 
	C331.549988,65.455421 331.747375,65.171097 332.283783,64.884216 
	C333.710693,63.569244 334.798584,62.256821 336.129364,60.838112 
	C336.558838,60.439877 336.745422,60.147930 337.251953,59.856590 
	C337.983093,59.209156 338.394226,58.561119 339.088348,57.795151 
	C339.884399,57.061504 340.397491,56.445789 341.243042,55.760185 
	C343.742523,53.832771 343.510162,52.314514 340.806488,50.844868 
	C339.755096,49.802670 338.827667,49.043766 337.854492,48.003166 
	C337.522095,47.486637 337.235504,47.251812 336.916443,46.679283 
	C334.558105,44.292358 332.232239,42.243126 329.808838,39.923298 
	C329.127289,39.211708 328.543304,38.770714 327.879028,38.012436 
	C327.161835,37.142399 326.524902,36.589645 325.912659,35.645947 
	C327.614685,34.125835 329.292023,32.996674 330.969360,31.867516 
	C332.680481,31.798153 334.391632,31.728785 336.867249,31.659531 
	C340.171112,31.166836 342.710480,30.674026 345.249817,30.181217 
	C345.930298,30.171717 346.610809,30.162218 347.725891,30.232967 
	C348.429138,30.204548 348.697815,30.095884 348.966461,29.987223 
	C351.042847,29.767387 353.119232,29.547548 355.755859,29.395321 
	C356.878845,29.311878 357.441589,29.160824 358.004303,29.009769 
	C359.456573,28.887138 360.908813,28.764507 362.936035,28.569241 
	C363.804749,28.473103 364.035492,28.340029 364.203217,28.097382 
	C374.745697,26.960556 385.284088,25.783318 395.832886,24.708529 
	C399.592194,24.325506 403.376801,24.190889 407.974274,23.888687 
	C404.850433,51.328682 401.803253,78.094933 398.410645,105.300201 
	C393.121277,101.150490 388.097321,96.644371 383.255219,91.950607 
	C378.040405,86.895531 375.497925,87.300148 371.756287,94.195839 
	C368.982819,96.916382 366.500000,99.471695 363.674652,102.048515 
	C362.435516,103.283989 361.538910,104.497948 360.479675,105.780319 
	C360.316986,105.848724 360.032593,106.057747 359.691284,106.064575 
	C358.248962,107.391106 357.147919,108.710800 355.775879,110.178917 
	C354.681152,111.235970 353.857422,112.144592 352.712036,113.070969 
	C351.946075,113.737740 351.501801,114.386749 350.785461,115.181793 
	C349.683319,116.231117 348.853241,117.134415 347.679779,118.055489 
	C346.439301,119.287140 345.542175,120.501015 344.482544,121.784653 
	C344.320068,121.854408 344.036957,122.066353 343.702087,122.069450 
	C342.263153,123.394592 341.159119,124.716637 339.797180,126.175125 
	C339.039581,126.896126 338.539825,127.480682 337.703247,128.077972 
	C336.597351,129.072800 335.828247,130.054916 334.787048,131.183014 
	C333.684784,132.232574 332.854614,133.136154 331.681488,134.057983 
	C330.441162,135.289368 329.543762,136.502472 328.483643,137.785370 
	C328.320892,137.855179 328.037079,138.067032 327.702209,138.069901 
	C326.263245,139.394730 325.159149,140.716690 323.797180,142.175095 
	C323.039551,142.896103 322.539825,143.480682 321.703278,144.077942 
	C320.597321,145.072754 319.828217,146.054871 318.787048,147.183029 
	C317.684784,148.232666 316.854614,149.136261 315.681305,150.058136 
	C314.444244,151.292755 313.550354,152.509109 312.493713,153.795090 
	C312.330994,153.864716 312.045441,154.073898 311.722534,154.135147 
	C310.285736,155.477707 309.171844,156.759018 307.766479,158.204117 
	C304.993408,160.928818 302.511780,163.489731 299.686646,166.066193 
	C298.447144,167.296127 297.551147,168.510513 296.492676,169.794434 
	C296.330200,169.863998 296.045288,170.073242 295.722412,170.134705 
	C294.285675,171.477554 293.171814,172.758942 291.766541,174.204117 
	C288.991547,176.925217 286.507996,179.482529 283.681152,182.058243 
	C282.445862,183.294678 281.553864,184.512726 280.498779,185.800766 
	C280.335663,185.870758 280.048981,186.080032 279.720947,186.143524 
	C277.617432,188.153793 275.841949,190.100586 273.797638,192.217407 
	C272.369476,193.615692 271.210144,194.843979 269.721344,196.157776 
	C267.817291,198.073410 266.242706,199.903534 264.504089,201.803925 
	C264.340057,201.874191 264.050690,202.083023 263.722351,202.145233 
	C261.618164,204.154114 259.842316,206.100754 257.797668,208.217407 
	C256.369446,209.615707 255.210083,210.843994 253.721252,212.157837 
	C251.817551,214.073792 250.243286,215.904205 248.504181,217.807053 
	C248.339340,217.879486 248.050400,218.094452 247.715271,218.090912 
	C246.281494,219.410812 245.182831,220.734222 243.864639,222.175186 
	C243.371719,222.498672 243.175629,222.762115 242.747330,223.153351 
	C241.839706,224.052048 241.241577,224.880478 240.348709,225.845001 
	C238.378525,227.667572 236.703094,229.354065 234.718140,231.117798 
	C233.828232,232.041092 233.247849,232.887131 232.502472,233.804962 
	C232.337463,233.876785 232.049225,234.092331 231.714172,234.089661 
	C230.280792,235.410553 229.182480,236.734085 227.864624,238.175171 
	C227.371719,238.498672 227.175629,238.762115 226.747330,239.153351 
	C225.839706,240.052048 225.241592,240.880493 224.348694,241.845032 
	C222.379059,243.668350 220.704193,245.355576 218.719406,247.119690 
	C217.832047,248.045303 217.254623,248.894043 216.512405,249.814240 
	C216.347610,249.885681 216.057983,250.098190 215.734558,250.162170 
	C213.968369,251.839493 212.525620,253.452835 211.043427,255.034668 
	C211.003983,255.003143 211.065796,255.082962 210.755203,255.152756 
	C209.846725,256.053741 209.248840,256.884949 208.375580,257.837463 
	C207.420532,258.669006 206.740875,259.379272 205.735916,260.168457 
	C203.835144,262.079773 202.259659,263.912201 200.518311,265.816650 
	C200.352448,265.888672 200.059998,266.101440 199.736252,266.164185 
	C197.969299,267.840027 196.526077,269.453125 195.043457,271.034729 
	C195.004044,271.003296 195.065826,271.082916 194.755219,271.152710 
	C193.846741,272.053741 193.248856,272.884949 192.375580,273.837463 
	C191.420532,274.669006 190.740875,275.379272 189.735916,276.168457 
	C187.835205,278.079865 186.259781,279.912323 184.518921,281.818298 
	C184.353455,281.891785 184.063049,282.108063 183.744568,282.169189 
	C182.320541,283.510834 181.214996,284.791351 179.815781,286.233887 
	C176.756592,289.270996 173.991074,292.146057 170.887192,295.109833 
	C167.731598,298.149200 164.914352,301.099823 161.828308,304.149658 
	C161.403610,304.359314 161.247696,304.469666 160.635315,304.429382 
	C140.541977,304.251587 120.904884,304.264130 101.268623,304.142334 
	C99.045837,304.128571 96.827736,303.357941 94.607468,302.938263 
z"/>
<path fill="#FDCC30" opacity="1.000000" stroke="none" 
	d="
M380.988708,134.007156 
	C380.937042,134.751190 380.885345,135.495209 380.670227,136.954956 
	C380.398071,155.815186 380.385101,173.961395 380.065094,192.102173 
	C380.022858,194.497314 379.024628,197.435852 377.424957,199.145935 
	C370.616638,206.424011 363.412506,213.331635 356.358246,220.379852 
	C329.501648,247.213455 302.679047,274.081299 275.722321,300.813873 
	C273.868317,302.652466 271.036957,304.573883 268.628387,304.615356 
	C249.836838,304.939178 231.037506,304.823669 212.240631,304.805664 
	C210.327393,304.803833 208.414398,304.550690 206.690598,304.427643 
	C264.737671,246.668488 322.555573,189.137375 380.373444,131.606247 
	C380.069305,131.248199 379.765137,130.890137 379.460968,130.532089 
	C379.970215,131.690445 380.479462,132.848801 380.988708,134.007156 
z"/>
<path fill="#030303" opacity="1.000000" stroke="none" 
	d="
M85.655991,268.859680 
	C73.123154,281.885895 60.590340,294.912109 48.057522,307.938324 
	C47.503704,307.543549 46.949883,307.148773 46.396065,306.753998 
	C46.311104,305.552887 46.152985,304.351868 46.152084,303.150696 
	C46.137272,283.346924 46.081543,263.542725 46.231396,243.740097 
	C46.247372,241.629242 46.868057,238.908737 48.255894,237.512222 
	C83.904221,201.641220 119.692024,165.908829 155.888962,129.719055 
	C164.909637,138.808548 173.886627,147.854019 183.309952,157.351059 
	C185.790710,159.928925 187.825150,162.055222 189.930435,164.255585 
	C173.968842,180.226578 158.304871,195.865479 142.679626,211.542984 
	C123.654724,230.631592 104.662422,249.752686 85.655991,268.859680 
z"/>
<path fill="#FEFEF9" opacity="1.000000" stroke="none" 
	d="
M322.040100,144.065262 
	C322.539825,143.480682 323.039551,142.896103 324.166840,142.174713 
	C325.875305,140.714264 326.956177,139.390656 328.037079,138.067032 
	C328.037079,138.067032 328.320892,137.855179 328.845520,137.836884 
	C330.254883,136.558975 331.139679,135.299347 332.024445,134.039734 
	C332.854614,133.136154 333.684784,132.232574 335.121765,131.158600 
	C336.499084,130.013885 337.269592,129.039566 338.040070,128.065247 
	C338.539825,127.480682 339.039581,126.896126 340.166870,126.174728 
	C341.875305,124.714050 342.956116,123.390198 344.036957,122.066345 
	C344.036957,122.066353 344.320068,121.854408 344.844666,121.836441 
	C346.253906,120.558220 347.138550,119.297981 348.023163,118.037727 
	C348.853241,117.134415 349.683319,116.231117 351.104004,115.152802 
	C352.140991,114.336258 352.587341,113.694733 353.033691,113.053207 
	C353.857422,112.144592 354.681152,111.235970 356.146240,110.179901 
	C357.869293,108.707558 358.950928,107.382652 360.032593,106.057739 
	C360.032593,106.057747 360.316986,105.848724 360.842041,105.832359 
	C362.250458,104.552994 363.133820,103.290001 364.017181,102.027008 
	C366.500000,99.471695 368.982819,96.916382 372.126526,94.196777 
	C373.761566,93.521965 374.685608,92.809319 375.722595,92.552422 
	C377.000549,92.235847 378.920563,91.681190 379.615173,92.297615 
	C384.248810,96.409851 388.562317,100.880486 393.133362,105.067032 
	C394.504608,106.322914 396.364929,107.044754 398.001221,108.011230 
	C397.414917,108.921249 396.788849,110.639847 396.248688,110.613243 
	C391.971802,110.402702 391.221771,113.506332 390.222839,116.499031 
	C388.661530,121.176552 386.916534,125.744797 381.867981,128.432770 
	C381.116119,126.483246 380.794434,124.491692 380.616272,123.388695 
	C378.116882,126.023582 375.578552,128.714966 373.020355,131.387329 
	C372.229156,132.213852 371.358826,132.964630 370.567383,133.790909 
	C364.221161,140.416656 357.986633,147.153137 351.517242,153.656082 
	C345.159760,160.046539 338.467621,166.103912 332.104370,172.488831 
	C325.269745,179.346680 318.735413,186.503494 311.910828,193.371674 
	C302.049652,203.295807 292.057617,213.090164 282.093567,222.911652 
	C279.387756,225.578766 276.488953,228.053848 273.840271,230.774399 
	C267.295349,237.496887 260.926392,244.391891 254.331924,251.064575 
	C247.740250,257.734375 240.908051,264.165894 234.278885,270.799408 
	C228.317276,276.764984 222.506210,282.880707 216.594101,288.896149 
	C212.559525,293.001221 208.377625,296.966370 204.466858,301.184418 
	C203.615494,302.102661 203.012192,304.097900 203.441422,305.111481 
	C203.847702,306.070831 205.720367,306.778229 207.019089,306.913116 
	C209.653931,307.186768 212.336716,306.998871 214.892822,307.260101 
	C214.523941,308.012634 214.261963,308.506317 214.000000,309.000000 
	C209.347153,309.318817 204.691254,309.937622 200.042114,309.890472 
	C191.800430,309.806854 183.564682,309.160004 175.322845,309.066376 
	C171.159119,309.019104 166.987518,309.666809 162.188354,309.734863 
	C160.371399,309.979614 159.185593,310.489807 157.999771,311.000000 
	C157.249985,311.000000 156.500183,311.000000 155.375305,310.590942 
	C154.998505,308.818604 154.996780,307.455322 155.392303,306.067627 
	C157.556961,305.555511 159.324387,305.067780 161.091797,304.580048 
	C161.247696,304.469666 161.403610,304.359314 162.186005,304.152039 
	C165.986557,301.678253 169.170990,299.314514 172.277740,296.852722 
	C172.359467,296.787933 171.595245,295.655579 171.225525,295.021088 
	C173.991074,292.146057 176.756592,289.270996 180.180328,286.224976 
	C181.913376,284.738678 182.988205,283.423370 184.063049,282.108063 
	C184.063049,282.108063 184.353455,281.891785 184.891113,281.869019 
	C186.972900,279.927307 188.517044,278.008423 190.061188,276.089539 
	C190.740875,275.379272 191.420532,274.669006 192.743591,273.888580 
	C193.946594,272.906586 194.506210,271.994751 195.065826,271.082916 
	C195.065826,271.082916 195.004044,271.003296 195.408478,271.027496 
	C197.228607,269.401611 198.644302,267.751526 200.059998,266.101440 
	C200.059998,266.101440 200.352448,265.888672 200.890533,265.867554 
	C202.972809,263.927460 204.517014,262.008514 206.061218,260.089539 
	C206.740875,259.379272 207.420532,258.669006 208.743591,257.888611 
	C209.946564,256.906616 210.506180,255.994781 211.065796,255.082962 
	C211.065796,255.082962 211.003983,255.003143 211.408508,255.027435 
	C213.227997,253.400528 214.642990,251.749359 216.057983,250.098190 
	C216.057983,250.098190 216.347610,249.885681 216.881256,249.854218 
	C217.953049,248.896103 218.491196,247.969452 219.029343,247.042816 
	C220.704193,245.355576 222.379059,243.668350 224.716949,241.898560 
	C225.938919,240.905029 226.497864,239.994064 227.056824,239.083099 
	C227.175629,238.762115 227.371719,238.498672 228.231354,238.169861 
	C229.894806,236.728760 230.972015,235.410538 232.049225,234.092331 
	C232.049225,234.092331 232.337463,233.876785 232.871902,233.847870 
	C233.946793,232.892822 234.487228,231.966690 235.027679,231.040558 
	C236.703094,229.354065 238.378525,227.667572 240.716980,225.898544 
	C241.938934,224.905045 242.497879,223.994064 243.056824,223.083099 
	C243.175629,222.762115 243.371719,222.498672 244.231293,222.169876 
	C245.895126,220.729492 246.972763,219.411972 248.050400,218.094452 
	C248.050400,218.094452 248.339340,217.879486 248.877472,217.860260 
	C250.960632,215.918106 252.505676,213.995193 254.050720,212.072281 
	C255.210083,210.843994 256.369446,209.615707 258.161774,208.216782 
	C260.546722,206.058426 262.298706,204.070724 264.050690,202.083038 
	C264.050690,202.083023 264.340057,201.874191 264.877319,201.857071 
	C266.960022,199.917374 268.505402,197.994812 270.050781,196.072235 
	C271.210144,194.843979 272.369476,193.615692 274.161774,192.216751 
	C276.546143,190.057388 278.297546,188.068710 280.048981,186.080017 
	C280.048981,186.080032 280.335663,185.870758 280.859894,185.847290 
	C282.264221,184.562500 283.144348,183.301178 284.024475,182.039856 
	C286.507996,179.482529 288.991547,176.925217 292.135834,174.203354 
	C293.879456,172.716949 294.962372,171.395096 296.045288,170.073242 
	C296.045288,170.073242 296.330200,169.863998 296.853851,169.843079 
	C298.261719,168.564972 299.145935,167.307800 300.030151,166.050629 
	C302.511780,163.489731 304.993408,160.928818 308.135803,158.203369 
	C309.879517,156.717163 310.962463,155.395523 312.045441,154.073898 
	C312.045441,154.073898 312.330994,153.864716 312.855103,153.843384 
	C314.260986,152.561325 315.142731,151.300598 316.024445,150.039856 
	C316.854614,149.136261 317.684784,148.232666 319.121765,147.158646 
	C320.499115,146.013901 321.269592,145.039581 322.040100,144.065262 
z"/>
<path fill="#FEFEFA" opacity="1.000000" stroke="none" 
	d="
M85.971207,268.993713 
	C104.662422,249.752686 123.654724,230.631592 142.679626,211.542984 
	C158.304871,195.865479 173.968842,180.226578 189.930435,164.255585 
	C187.825150,162.055222 185.790710,159.928925 183.593231,157.492569 
	C187.187515,155.426910 190.839447,156.278915 194.829102,156.719833 
	C205.230835,157.869400 213.798477,152.630707 221.227798,146.086380 
	C228.175537,139.966293 234.161423,132.764984 240.991852,126.498634 
	C252.843262,115.625870 265.687469,105.756706 276.870575,94.256248 
	C287.901642,82.912163 299.741913,71.841858 306.049164,56.740891 
	C308.395416,51.123501 310.371796,45.311695 312.000214,39.445148 
	C313.796143,32.975243 316.097412,30.720711 321.620209,32.020775 
	C322.497406,33.737011 323.243134,34.872894 323.994446,36.004467 
	C324.000000,36.000153 323.990814,36.011082 323.989380,36.379215 
	C323.451935,38.314281 322.915924,39.881218 322.379944,41.448151 
	C322.782013,41.845684 323.184082,42.243217 323.586151,42.640747 
	C325.043854,41.203735 326.501556,39.766724 327.959290,38.329712 
	C328.543304,38.770714 329.127289,39.211708 329.809174,40.227917 
	C329.930542,41.210388 329.954071,41.617649 329.991730,42.392941 
	C330.999451,43.511868 331.993011,44.262760 333.203552,45.124390 
	C333.691132,45.434662 333.880096,45.693775 333.991455,46.384651 
	C334.361084,47.762333 334.726624,48.767818 335.092133,49.773308 
	C336.028168,49.277161 336.964203,48.781010 337.900238,48.284866 
	C338.827667,49.043766 339.755096,49.802670 340.808960,51.236710 
	C340.927155,53.217918 340.918854,54.523987 340.910583,55.830067 
	C340.397491,56.445789 339.884399,57.061504 338.788483,57.841789 
	C337.781097,58.622902 337.356537,59.239441 336.932007,59.855980 
	C336.745422,60.147930 336.558838,60.439877 335.794556,60.867630 
	C334.126160,62.297882 333.035461,63.592327 331.944763,64.886772 
	C331.747375,65.171097 331.549988,65.455421 330.799500,65.873573 
	C329.804779,66.626144 329.363159,67.244873 328.921509,67.863602 
	C328.921509,67.863602 328.957428,67.951294 328.598236,67.934196 
	C327.819061,67.938263 327.399109,67.959435 326.616730,67.989655 
	C325.177429,69.006294 324.100525,70.013885 323.010864,71.379524 
	C322.974670,72.452225 322.951233,73.166893 322.927795,73.881554 
	C322.927795,73.881554 322.964203,73.969086 322.612732,73.988724 
	C321.827606,74.631638 321.393982,75.254906 320.960388,75.878181 
	C320.734985,76.131721 320.509613,76.385254 319.752258,76.827988 
	C317.790466,78.638763 316.360687,80.260338 314.930908,81.881912 
	C314.930908,81.881920 314.965332,81.968185 314.613586,81.988480 
	C313.817932,82.632462 313.374054,83.256157 312.930176,83.879845 
	C312.930176,83.879845 312.969666,83.966446 312.569153,83.947639 
	C311.453003,83.960609 310.737396,83.992378 309.678711,84.049988 
	C308.565002,85.057671 307.794342,86.039528 307.010895,87.378799 
	C306.973724,88.449585 306.949341,89.162941 306.924957,89.876305 
	C306.924957,89.876305 306.959808,89.964249 306.607971,89.986237 
	C305.824738,90.633308 305.393311,91.258408 304.961914,91.883507 
	C304.740723,92.137703 304.519562,92.391899 303.764313,92.832855 
	C300.160706,95.354362 297.091187,97.689110 293.685425,100.047211 
	C292.554413,101.379807 291.759644,102.689049 290.955444,104.317398 
	C290.945099,105.061554 290.944183,105.486603 290.943237,105.911659 
	C290.943237,105.911659 290.988556,105.990189 290.628052,105.956528 
	C289.837341,105.928871 289.407166,105.934875 288.805359,105.613235 
	C288.083160,103.287285 287.648956,101.246231 286.937073,99.307114 
	C286.527527,98.191490 285.874420,96.837410 284.938354,96.359413 
	C284.324921,96.046173 282.628174,96.848869 282.105072,97.619263 
	C281.453796,98.578407 280.888550,100.424011 281.378021,101.177338 
	C282.966888,103.622612 285.054382,105.743904 286.816284,108.292946 
	C283.795685,111.071915 280.908661,113.547890 277.685394,116.047226 
	C276.554413,117.379837 275.759674,118.689072 274.955566,120.317665 
	C274.945496,121.062416 274.944824,121.487823 274.944122,121.913223 
	C274.944122,121.913223 274.989380,121.990860 274.629028,121.957230 
	C273.838257,121.929558 273.407806,121.935509 272.805542,121.613525 
	C272.083405,119.301529 271.805206,117.178970 270.889984,115.380646 
	C270.248138,114.119530 268.737427,113.300613 267.614746,112.284210 
	C266.764160,113.656792 264.890228,115.833893 265.232208,116.268898 
	C267.175079,118.740211 269.647461,120.795235 271.809448,123.286758 
	C270.112671,125.037674 268.546173,126.493698 266.825317,127.654213 
	C264.780609,125.905800 262.890320,124.452904 260.958801,122.640656 
	C259.545441,121.819069 257.299377,120.597504 256.937958,121.013466 
	C253.745956,124.687294 250.888687,128.651947 248.353516,131.978180 
	C249.519531,134.846298 250.778351,137.942673 252.018585,141.019531 
	C252.000000,141.000000 252.039001,141.037201 251.631729,141.024139 
	C249.319290,140.063751 247.470108,138.969254 245.491013,138.216232 
	C243.942017,137.626846 241.309631,136.623947 240.746231,137.245010 
	C237.564514,140.752304 234.862122,144.694443 232.341446,148.031616 
	C233.485046,150.818848 234.761124,153.928940 236.018585,157.019531 
	C236.000000,157.000000 236.039001,157.037201 235.632721,157.024170 
	C232.339935,155.577255 229.453430,154.143372 226.566910,152.709488 
	C227.256912,153.214203 227.946915,153.718903 228.636917,154.223602 
	C224.891525,158.194717 221.146118,162.165848 217.400711,166.136963 
	C217.008438,165.332764 216.616150,164.528564 216.223877,163.724365 
	C217.494980,166.829254 218.766083,169.934158 220.029297,173.035065 
	C220.021408,173.031082 220.045135,173.047348 219.638977,173.033264 
	C217.328629,172.074982 215.478668,170.989334 213.502899,170.231903 
	C211.954742,169.638412 209.325211,168.610367 208.768967,169.222595 
	C205.587830,172.723923 202.883301,176.658279 199.679230,180.891769 
	C199.458664,180.447037 199.678253,180.874741 199.884720,181.308670 
	C200.812866,183.259155 202.967422,186.446045 202.456192,186.955414 
	C199.843582,189.558502 198.420029,186.190201 196.416840,185.114182 
	C195.423843,184.580780 193.240143,184.562897 192.668060,185.230804 
	C189.586823,188.828064 186.842346,192.713776 183.683334,196.894821 
	C183.538834,196.683990 183.986343,197.174774 184.248871,197.750015 
	C185.073059,199.555969 185.827621,201.393692 186.609131,203.219116 
	C184.665359,202.579803 182.745346,201.849503 180.769257,201.334076 
	C179.508240,201.005142 177.453857,200.381668 176.972397,200.939957 
	C173.773849,204.648880 170.904099,208.641357 167.671875,212.876465 
	C167.892380,213.136765 168.977646,213.896576 169.287415,214.896591 
	C169.860611,216.747070 170.873901,219.310486 170.085999,220.541183 
	C168.791702,222.562958 166.855789,221.947830 164.757294,220.086655 
	C162.052322,217.687515 161.329498,219.863235 161.395554,222.668503 
	C163.235504,222.907654 164.831253,223.115051 166.709854,223.359222 
	C166.812286,225.036255 166.900940,226.487747 166.881622,228.165833 
	C166.507874,228.587845 166.242081,228.783218 165.623932,228.988602 
	C164.524429,229.674744 163.777313,230.350876 162.986145,231.369888 
	C161.632477,233.816086 160.322830,235.919373 159.013184,238.022675 
	C158.527863,238.607880 158.042557,239.193085 156.946014,239.903137 
	C154.904037,240.703537 153.473328,241.379089 151.715714,242.077393 
	C150.936050,242.742279 150.483276,243.384415 150.015762,244.263336 
	C150.001007,244.500107 149.971542,244.973663 149.619705,244.985474 
	C148.521957,245.673828 147.776031,246.350372 146.986237,247.369995 
	C145.634735,249.819778 144.327087,251.926483 143.019455,254.033188 
	C142.535172,254.618256 142.050903,255.203339 140.953827,255.908783 
	C138.908569,256.704865 137.476135,257.380615 135.716705,258.078461 
	C134.936600,258.742554 134.483521,259.384521 134.015686,260.263306 
	C134.000931,260.500061 133.971481,260.973602 133.619629,260.985474 
	C132.521896,261.673859 131.776001,262.350403 130.986221,263.370026 
	C129.634720,265.819794 128.327072,267.926514 127.019440,270.033203 
	C126.535240,270.618256 126.051033,271.203278 124.951111,271.909729 
	C120.555870,275.348297 116.776344,278.665466 112.988617,281.606812 
	C112.033615,280.033051 110.543869,278.959991 110.234680,277.615479 
	C108.946152,272.012146 106.701164,274.622742 104.961586,275.965393 
	C105.506889,278.436401 106.699188,280.564880 106.132065,281.996277 
	C105.152321,284.469025 102.996262,284.236847 100.803299,282.696136 
	C100.303101,282.344757 98.418472,283.293243 97.752617,284.114807 
	C97.387764,284.564972 97.994583,286.195312 98.596596,286.945923 
	C99.537659,288.119324 100.846413,288.997803 101.999390,290.001221 
	C99.784523,289.479645 97.569649,288.958069 94.642975,288.268860 
	C97.417381,283.215820 94.467194,281.132416 90.790573,278.365814 
	C88.352524,276.531189 87.724617,272.291046 85.971207,268.993713 
M325.692505,64.383347 
	C326.652924,64.432159 327.613312,64.480972 329.305176,64.566963 
	C327.645966,62.245041 326.778839,60.328049 325.306366,59.204388 
	C324.222748,58.377483 322.230988,58.146263 320.869293,58.505066 
	C320.075165,58.714321 319.037750,60.871609 319.347290,61.676605 
	C319.740753,62.699863 321.325165,63.372860 322.518311,63.939556 
	C323.206848,64.266579 324.136292,64.086372 325.692505,64.383347 
z"/>
<path fill="#040404" opacity="1.000000" stroke="none" 
	d="
M103.829834,77.513184 
	C114.083084,87.481216 124.336334,97.449242 134.163681,107.003212 
	C104.304153,136.772980 75.132103,165.857346 46.289917,194.612823 
	C46.284130,194.519501 46.123863,193.145233 46.125034,191.771088 
	C46.141247,172.781464 46.325901,153.790161 46.105698,134.803482 
	C46.053238,130.279953 46.855289,126.656776 51.023170,123.480751 
	C67.580055,106.737831 83.706688,90.479012 99.788376,74.265503 
	C101.527435,75.663002 102.678635,76.588089 103.829834,77.513184 
z"/>
<path fill="#FFFEFA" opacity="1.000000" stroke="none" 
	d="
M382.004883,189.998779 
	C386.623016,192.137405 388.696930,196.152954 386.426727,200.813797 
	C381.244690,211.452835 382.578735,223.000854 380.647247,234.607559 
	C374.049255,241.083328 367.717834,247.003189 361.575256,253.112915 
	C355.420563,259.234741 349.537811,265.630005 343.384308,271.753143 
	C335.698547,279.401001 327.537933,286.601135 320.241394,294.596100 
	C317.311462,297.806488 311.475647,299.756653 313.003662,305.988464 
	C309.411163,306.989685 305.866669,308.574951 302.216522,308.874908 
	C293.675598,309.576752 285.085480,309.773438 276.511444,309.889709 
	C275.051819,309.909546 273.572998,308.515350 272.360779,307.251953 
	C274.434235,305.297882 276.411285,304.028656 278.040344,302.409363 
	C292.147675,288.386230 306.247284,274.354431 320.235382,260.212708 
	C328.735992,251.618729 336.904053,242.694138 345.459808,234.156937 
	C355.450439,224.188004 365.563049,214.331116 375.902740,204.727081 
	C380.351166,200.595184 383.843475,196.523209 382.004883,189.998779 
M338.106110,249.456100 
	C338.711456,252.072281 340.002045,252.385590 341.886902,250.556915 
	C343.065186,249.413773 344.395905,248.360931 345.298828,247.024719 
	C345.883698,246.159256 345.819916,244.855484 346.046753,243.748108 
	C344.883545,243.872940 343.413452,243.597748 342.620941,244.205765 
	C340.966187,245.475266 339.669220,247.211136 338.106110,249.456100 
M296.459534,291.106293 
	C294.611694,292.657074 292.584991,294.050537 291.010101,295.841400 
	C290.435730,296.494568 290.936462,298.093079 290.946716,299.260315 
	C291.942291,299.013153 293.139099,299.031372 293.890259,298.461823 
	C295.318024,297.379211 296.769775,296.123749 297.654083,294.613617 
	C298.108765,293.837189 297.363037,292.357849 296.459534,291.106293 
M314.322540,275.991791 
	C311.976746,275.438660 306.130219,279.226044 306.174500,281.395538 
	C306.188690,282.092316 306.746826,282.940186 307.314087,283.402222 
	C307.649384,283.675293 308.750610,283.563995 309.060699,283.221344 
	C311.000366,281.077942 312.814148,278.820648 314.322540,275.991791 
M354.106110,233.456100 
	C354.711517,236.072205 356.002075,236.385651 357.886963,234.556915 
	C359.065216,233.413773 360.395935,232.360931 361.298859,231.024719 
	C361.883698,230.159225 361.819916,228.855469 362.046753,227.748093 
	C360.883545,227.872910 359.413513,227.597794 358.621033,228.205811 
	C356.966278,229.475342 355.669250,231.211151 354.106110,233.456100 
M328.335999,263.852234 
	C328.730072,263.547974 329.322174,263.321686 329.478699,262.923920 
	C329.851593,261.976349 330.018738,260.947784 330.268982,259.951935 
	C329.367523,259.744232 327.972534,259.064453 327.645599,259.406281 
	C325.683929,261.457062 323.941010,263.722870 322.248810,266.008484 
	C322.164459,266.122437 323.144653,267.305206 323.801666,267.584534 
	C324.210754,267.758453 325.077026,267.305603 325.504425,266.892334 
	C326.331085,266.093079 326.992493,265.122955 328.335999,263.852234 
M374.190643,217.628662 
	C375.260620,216.604965 376.447571,215.672653 377.349609,214.517807 
	C377.780151,213.966614 377.865753,212.955963 377.728821,212.224319 
	C377.649506,211.800552 376.454834,211.148682 376.376953,211.225204 
	C374.246521,213.318649 371.220703,215.193115 370.435242,217.747147 
	C369.791199,219.841431 372.211700,220.479950 374.190643,217.628662 
z"/>
<path fill="#FCCD35" opacity="1.000000" stroke="none" 
	d="
M380.902863,243.189194 
	C380.864624,243.850571 380.826416,244.511963 380.690186,245.710007 
	C380.697266,246.890854 380.802338,247.535049 380.907440,248.179245 
	C380.856689,265.398560 380.805939,282.617889 380.663208,300.459717 
	C380.531067,301.227753 380.425568,301.394165 380.463989,301.514648 
	C380.552490,301.792145 380.710938,302.047363 380.841003,302.311646 
	C378.925476,303.134064 377.016785,304.652405 375.093292,304.671356 
	C355.721710,304.862335 336.347687,304.807495 316.485901,304.509338 
	C316.915894,302.702362 317.585815,300.960480 318.790070,299.750397 
	C337.925995,280.521515 357.114960,261.345215 376.356171,242.221680 
	C377.553802,241.031387 379.284058,240.377045 380.766541,239.473358 
	C380.658447,239.750748 380.638123,240.034409 380.604034,240.743774 
	C380.635986,241.838501 380.769440,242.513855 380.902863,243.189194 
z"/>
<path fill="#FCFBF7" opacity="1.000000" stroke="none" 
	d="
M103.872650,77.115288 
	C102.678635,76.588089 101.527435,75.663002 99.788376,74.265503 
	C83.706688,90.479012 67.580055,106.737831 51.190960,123.147491 
	C49.286572,120.471146 46.620354,117.774612 46.239231,114.786606 
	C45.645546,110.132133 46.839603,105.279701 46.838551,100.511261 
	C46.837463,95.580933 46.314331,90.650734 46.373703,85.253197 
	C57.172318,74.529404 67.616783,64.272888 78.061256,54.016373 
	C88.955948,57.764492 96.525391,65.696030 103.499725,74.340637 
	C103.941528,74.888252 103.790634,75.914055 103.872650,77.115288 
z"/>
<path fill="#FEFBE3" opacity="1.000000" stroke="none" 
	d="
M382.001526,189.530258 
	C383.843475,196.523209 380.351166,200.595184 375.902740,204.727081 
	C365.563049,214.331116 355.450439,224.188004 345.459808,234.156937 
	C336.904053,242.694138 328.735992,251.618729 320.235382,260.212708 
	C306.247284,274.354431 292.147675,288.386230 278.040344,302.409363 
	C276.411285,304.028656 274.434235,305.297882 272.309143,306.866547 
	C271.250122,307.003174 270.500488,307.002716 268.907288,307.000519 
	C250.375702,306.999603 232.687729,307.000427 214.999741,307.001221 
	C212.336716,306.998871 209.653931,307.186768 207.019089,306.913116 
	C205.720367,306.778229 203.847702,306.070831 203.441422,305.111481 
	C203.012192,304.097900 203.615494,302.102661 204.466858,301.184418 
	C208.377625,296.966370 212.559525,293.001221 216.594101,288.896149 
	C222.506210,282.880707 228.317276,276.764984 234.278885,270.799408 
	C240.908051,264.165894 247.740250,257.734375 254.331924,251.064575 
	C260.926392,244.391891 267.295349,237.496887 273.840271,230.774399 
	C276.488953,228.053848 279.387756,225.578766 282.093567,222.911652 
	C292.057617,213.090164 302.049652,203.295807 311.910828,193.371674 
	C318.735413,186.503494 325.269745,179.346680 332.104370,172.488831 
	C338.467621,166.103912 345.159760,160.046539 351.517242,153.656082 
	C357.986633,147.153137 364.221161,140.416656 370.567383,133.790909 
	C371.358826,132.964630 372.229156,132.213852 373.020355,131.387329 
	C375.578552,128.714966 378.116882,126.023582 380.616272,123.388695 
	C380.794434,124.491692 381.116119,126.483246 381.717651,128.739441 
	C381.851257,130.508896 381.704956,132.013702 381.273682,133.762817 
	C380.479462,132.848801 379.970215,131.690445 379.460968,130.532089 
	C379.765137,130.890137 380.069305,131.248199 380.373444,131.606247 
	C322.555573,189.137375 264.737671,246.668488 206.690598,304.427643 
	C208.414398,304.550690 210.327393,304.803833 212.240631,304.805664 
	C231.037506,304.823669 249.836838,304.939178 268.628387,304.615356 
	C271.036957,304.573883 273.868317,302.652466 275.722321,300.813873 
	C302.679047,274.081299 329.501648,247.213455 356.358246,220.379852 
	C363.412506,213.331635 370.616638,206.424011 377.424957,199.145935 
	C379.024628,197.435852 380.022858,194.497314 380.065094,192.102173 
	C380.385101,173.961395 380.398071,155.815186 380.723694,137.325195 
	C381.289825,138.697067 381.933502,140.412872 381.942474,142.132019 
	C382.024017,157.774933 381.994934,173.418411 382.001526,189.530258 
z"/>
<path fill="#040404" opacity="1.000000" stroke="none" 
	d="
M78.112396,53.649422 
	C67.616783,64.272888 57.172318,74.529404 46.396988,84.809204 
	C46.066128,63.730984 46.066128,42.629478 46.066128,21.062305 
	C46.916172,21.397903 47.574623,21.466013 47.937950,21.829287 
	C57.697929,31.587854 67.436218,41.368221 77.138557,51.184055 
	C77.657112,51.708675 77.829819,52.575146 78.112396,53.649422 
z"/>
<path fill="#FEFBE3" opacity="1.000000" stroke="none" 
	d="
M380.843567,239.028229 
	C379.284058,240.377045 377.553802,241.031387 376.356171,242.221680 
	C357.114960,261.345215 337.925995,280.521515 318.790070,299.750397 
	C317.585815,300.960480 316.915894,302.702362 316.022034,304.557495 
	C315.263336,305.275543 314.480042,305.632996 313.350189,305.989441 
	C311.475647,299.756653 317.311462,297.806488 320.241394,294.596100 
	C327.537933,286.601135 335.698547,279.401001 343.384308,271.753143 
	C349.537811,265.630005 355.420563,259.234741 361.575256,253.112915 
	C367.717834,247.003189 374.049255,241.083328 380.644409,235.048676 
	C380.967499,236.205765 380.944061,237.394440 380.843567,239.028229 
z"/>
<path fill="#FFFFFB" opacity="1.000000" stroke="none" 
	d="
M154.995056,306.092010 
	C154.996780,307.455322 154.998505,308.818604 155.000427,310.590942 
	C140.876099,308.281647 126.684921,308.762115 112.411217,309.555817 
	C106.367638,309.891907 100.219383,308.475098 94.136711,307.711548 
	C93.690971,307.655579 93.391808,306.432007 93.335342,305.508667 
	C94.884201,305.618652 96.122398,306.278595 97.360199,306.277863 
	C116.571854,306.266357 135.783447,306.169281 154.995056,306.092010 
z"/>
<path fill="#FEF7CC" opacity="1.000000" stroke="none" 
	d="
M155.392303,306.067627 
	C135.783447,306.169281 116.571854,306.266357 97.360199,306.277863 
	C96.122398,306.278595 94.884201,305.618652 93.328537,305.122803 
	C93.356079,304.337189 93.701279,303.694824 94.326965,302.995361 
	C96.827736,303.357941 99.045837,304.128571 101.268623,304.142334 
	C120.904884,304.264130 140.541977,304.251587 160.635315,304.429382 
	C159.324387,305.067780 157.556961,305.555511 155.392303,306.067627 
z"/>
<path fill="#FEFEF9" opacity="1.000000" stroke="none" 
	d="
M101.999428,290.335144 
	C100.846413,288.997803 99.537659,288.119324 98.596596,286.945923 
	C97.994583,286.195312 97.387764,284.564972 97.752617,284.114807 
	C98.418472,283.293243 100.303101,282.344757 100.803299,282.696136 
	C102.996262,284.236847 105.152321,284.469025 106.132065,281.996277 
	C106.699188,280.564880 105.506889,278.436401 104.961586,275.965393 
	C106.701164,274.622742 108.946152,272.012146 110.234680,277.615479 
	C110.543869,278.959991 112.033615,280.033051 112.847054,281.907410 
	C112.153847,283.742126 111.594002,284.900360 111.034149,286.058624 
	C110.550743,286.637543 110.067337,287.216461 108.970535,287.917694 
	C106.239113,289.361633 104.121086,290.683258 102.003052,292.004883 
	C102.001862,291.559631 102.000664,291.114349 101.999428,290.335144 
z"/>
<path fill="#FFFEFA" opacity="1.000000" stroke="none" 
	d="
M214.892822,307.260101 
	C232.687729,307.000427 250.375702,306.999603 268.532471,307.003052 
	C268.542755,310.825104 265.583435,310.006927 263.237518,309.966705 
	C247.136673,309.690430 231.037216,309.332001 214.468658,309.000000 
	C214.261963,308.506317 214.523941,308.012634 214.892822,307.260101 
z"/>
<path fill="#FEF3B7" opacity="1.000000" stroke="none" 
	d="
M398.254700,107.798180 
	C396.364929,107.044754 394.504608,106.322914 393.133362,105.067032 
	C388.562317,100.880486 384.248810,96.409851 379.615173,92.297615 
	C378.920563,91.681190 377.000549,92.235847 375.722595,92.552422 
	C374.685608,92.809319 373.761566,93.521965 372.417206,94.031555 
	C375.497925,87.300148 378.040405,86.895531 383.255219,91.950607 
	C388.097321,96.644371 393.121277,101.150490 398.383789,105.715492 
	C398.637634,106.322884 398.572906,106.954002 398.254700,107.798180 
z"/>
<path fill="#FEF7CC" opacity="1.000000" stroke="none" 
	d="
M102.010529,292.010010 
	C104.121086,290.683258 106.239113,289.361633 108.709862,288.037903 
	C104.936623,292.340942 100.810661,296.646088 96.343529,300.980286 
	C96.984390,299.244354 97.966431,297.479340 99.327538,295.328796 
	C100.478653,293.973358 101.250702,293.003479 102.022743,292.033630 
	C102.022743,292.033630 102.018005,292.015137 102.010529,292.010010 
z"/>
<path fill="#FEF7CC" opacity="1.000000" stroke="none" 
	d="
M330.721649,31.610571 
	C329.292023,32.996674 327.614685,34.125835 325.597076,35.644730 
	C324.834778,36.026665 324.412811,36.018875 323.990814,36.011082 
	C323.990814,36.011082 324.000000,36.000153 323.994507,35.601761 
	C323.986023,34.129269 323.982971,33.055168 323.979950,31.981068 
	C326.144623,31.771925 328.309265,31.562778 330.721649,31.610571 
z"/>
<path fill="#FEF7CC" opacity="1.000000" stroke="none" 
	d="
M344.809753,30.107357 
	C342.710480,30.674026 340.171112,31.166836 337.262207,31.498543 
	C339.384979,30.902792 341.877350,30.468145 344.809753,30.107357 
z"/>
<path fill="#FEFBE4" opacity="1.000000" stroke="none" 
	d="
M323.650085,31.985773 
	C323.982971,33.055168 323.986023,34.129269 323.988953,35.606075 
	C323.243134,34.872894 322.497406,33.737011 321.875854,32.301781 
	C322.440063,31.998451 322.880127,31.994465 323.650085,31.985773 
z"/>
<path fill="#FFFFFB" opacity="1.000000" stroke="none" 
	d="
M158.365799,310.999908 
	C159.185593,310.489807 160.371399,309.979614 161.778610,309.734711 
	C160.910599,310.333252 159.821213,310.666534 158.365799,310.999908 
z"/>
<path fill="#FEFBE4" opacity="1.000000" stroke="none" 
	d="
M101.679283,292.056091 
	C101.250702,293.003479 100.478653,293.973358 99.372116,294.986084 
	C99.803688,294.045471 100.569756,293.062012 101.679283,292.056091 
z"/>
<path fill="#FEFBE4" opacity="1.000000" stroke="none" 
	d="
M357.847076,28.778549 
	C357.441589,29.160824 356.878845,29.311878 356.135376,29.309353 
	C356.533020,28.952957 357.111450,28.750143 357.847076,28.778549 
z"/>
<path fill="#FEFBE3" opacity="1.000000" stroke="none" 
	d="
M380.949829,242.779755 
	C380.769440,242.513855 380.635986,241.838501 380.678619,240.946167 
	C380.902069,241.276230 380.949432,241.823257 380.949829,242.779755 
z"/>
<path fill="#FEFBE3" opacity="1.000000" stroke="none" 
	d="
M380.956787,247.788391 
	C380.802338,247.535049 380.697266,246.890854 380.751404,246.036896 
	C380.942444,246.350601 380.974274,246.874069 380.956787,247.788391 
z"/>
<path fill="#FEFBE3" opacity="1.000000" stroke="none" 
	d="
M380.888733,301.918427 
	C380.710938,302.047363 380.552490,301.792145 380.463989,301.514648 
	C380.425568,301.394165 380.531067,301.227753 380.718384,300.909241 
	C380.889221,300.999237 380.912842,301.262238 380.888733,301.918427 
z"/>
<path fill="#FEF7CC" opacity="1.000000" stroke="none" 
	d="
M348.713684,29.962023 
	C348.697815,30.095884 348.429138,30.204548 348.061401,30.173525 
	C348.128510,30.001501 348.294708,29.969164 348.713684,29.962023 
z"/>
<path fill="#FEFBE4" opacity="1.000000" stroke="none" 
	d="
M364.021545,28.073870 
	C364.035492,28.340029 363.804749,28.473103 363.337341,28.390833 
	C363.366241,28.141022 363.591614,28.062786 364.021545,28.073870 
z"/>
<path fill="#FEFEF9" opacity="1.000000" stroke="none" 
	d="
M166.989594,227.939224 
	C166.900940,226.487747 166.812286,225.036255 166.709854,223.359222 
	C164.831253,223.115051 163.235504,222.907654 161.395554,222.668503 
	C161.329498,219.863235 162.052322,217.687515 164.757294,220.086655 
	C166.855789,221.947830 168.791702,222.562958 170.085999,220.541183 
	C170.873901,219.310486 169.860611,216.747070 169.287415,214.896591 
	C168.977646,213.896576 167.892380,213.136765 167.671875,212.876465 
	C170.904099,208.641357 173.773849,204.648880 176.972397,200.939957 
	C177.453857,200.381668 179.508240,201.005142 180.769257,201.334076 
	C182.745346,201.849503 184.665359,202.579803 186.609131,203.219116 
	C185.827621,201.393692 185.073059,199.555969 184.248871,197.750015 
	C183.986343,197.174774 183.538834,196.683990 183.683334,196.894821 
	C186.842346,192.713776 189.586823,188.828064 192.668060,185.230804 
	C193.240143,184.562897 195.423843,184.580780 196.416840,185.114182 
	C198.420029,186.190201 199.843582,189.558502 202.456192,186.955414 
	C202.967422,186.446045 200.812866,183.259155 199.884720,181.308670 
	C199.678253,180.874741 199.458664,180.447037 199.679230,180.891769 
	C202.883301,176.658279 205.587830,172.723923 208.768967,169.222595 
	C209.325211,168.610367 211.954742,169.638412 213.502899,170.231903 
	C215.478668,170.989334 217.328629,172.074982 219.633240,173.386322 
	C218.681763,175.482376 217.329834,177.211288 215.922089,178.589478 
	C213.264374,174.998672 210.337418,175.209793 208.084152,178.251160 
	C206.210358,180.780304 206.324448,183.571411 209.816391,185.282379 
	C208.791367,187.061157 207.900650,188.538101 207.009918,190.015045 
	C206.522141,190.601608 206.034363,191.188187 204.944244,191.898163 
	C202.888199,192.998215 201.434464,193.974838 199.924713,194.599380 
	C197.891312,193.688828 195.725037,192.382263 193.998734,192.818161 
	C192.711273,193.143280 191.396927,195.660248 191.228470,197.316437 
	C191.114777,198.434265 192.974030,199.752762 193.816284,201.283218 
	C192.791199,203.061646 191.900574,204.538361 191.009949,206.015060 
	C190.522156,206.601639 190.034378,207.188217 188.944244,207.898209 
	C186.888458,208.999420 185.434998,209.977203 183.925659,210.602966 
	C182.665741,209.517288 181.503769,208.248825 180.249786,208.150192 
	C176.484528,207.853989 175.291336,210.900269 174.383591,213.740921 
	C174.246109,214.171158 176.082092,215.232025 177.004303,216.334656 
	C177.003250,217.112717 177.003113,217.557327 176.855042,218.295898 
	C176.143112,219.735245 175.579132,220.880676 175.015137,222.026093 
	C174.530243,222.610931 174.045334,223.195770 172.953857,223.904144 
	C170.561386,225.331543 168.775482,226.635376 166.989594,227.939224 
z"/>
<path fill="#FEF7CC" opacity="1.000000" stroke="none" 
	d="
M215.977905,178.940186 
	C217.329834,177.211288 218.681763,175.482376 220.039413,173.400421 
	C220.045135,173.047348 220.021408,173.031082 220.381165,173.032318 
	C222.150848,172.001328 223.560791,170.969086 225.267166,169.936172 
	C225.948578,169.863419 226.333557,169.791321 226.802399,169.802826 
	C226.886292,169.886444 227.054062,170.053665 227.054062,170.053665 
	C220.598236,176.680984 214.142410,183.308304 207.348267,189.975342 
	C207.900650,188.538101 208.791367,187.061157 209.828766,185.288574 
	C209.975464,184.992935 209.994522,184.993958 210.292145,184.854919 
	C212.389435,182.807205 214.189072,180.898529 215.990997,178.978394 
	C215.993271,178.966934 215.977905,178.940186 215.977905,178.940186 
z"/>
<path fill="#FEF7CC" opacity="1.000000" stroke="none" 
	d="
M243.054199,154.053528 
	C237.940460,159.339981 232.826721,164.626434 227.383514,169.983276 
	C227.054062,170.053665 226.886292,169.886444 226.881226,169.521667 
	C226.911942,168.765518 226.947723,168.374146 227.282776,167.845963 
	C228.395447,166.480911 229.208817,165.252670 230.320557,163.993668 
	C231.074509,163.620331 231.530121,163.277771 232.294510,162.797058 
	C233.748520,160.785004 234.893768,158.911102 236.039001,157.037201 
	C236.039001,157.037201 236.000000,157.000000 236.371521,157.016663 
	C238.464905,155.955353 240.186798,154.877365 242.114014,153.810898 
	C242.319336,153.822418 242.718094,153.721634 242.802094,153.804642 
	C242.886078,153.887650 243.054214,154.053528 243.054199,154.053528 
z"/>
<path fill="#FEF7CC" opacity="1.000000" stroke="none" 
	d="
M259.054047,138.053696 
	C253.940399,143.340073 248.826752,148.626450 243.383667,153.983185 
	C243.054214,154.053528 242.886078,153.887650 242.881042,153.523102 
	C242.911835,152.766632 242.947662,152.374710 243.282791,151.845978 
	C244.395447,150.480927 245.208832,149.252686 246.320541,147.993652 
	C247.074478,147.620300 247.530090,147.277740 248.294495,146.797043 
	C249.748535,144.785019 250.893784,142.911118 252.039001,141.037201 
	C252.039001,141.037201 252.000000,141.000000 252.370468,141.016785 
	C254.150925,140.001358 255.560913,138.969116 257.267578,137.936539 
	C257.949066,137.863876 258.333801,137.791565 258.802429,137.802856 
	C258.886292,137.886475 259.054047,138.053696 259.054047,138.053696 
z"/>
<path fill="#FEF7CC" opacity="1.000000" stroke="none" 
	d="
M288.976990,105.940872 
	C289.407166,105.934875 289.837341,105.928871 290.589386,105.932831 
	C285.817657,111.259377 280.724030,116.575966 275.287262,121.902893 
	C274.944824,121.487823 274.945496,121.062416 275.256470,120.178093 
	C276.385040,118.487396 277.203339,117.255623 278.021637,116.023857 
	C280.908661,113.547890 283.795685,111.071915 287.091553,108.174774 
	C287.992584,107.149361 288.484802,106.545120 288.976990,105.940872 
z"/>
<path fill="#FEF7CC" opacity="1.000000" stroke="none" 
	d="
M272.977386,121.941460 
	C273.407806,121.935509 273.838257,121.929558 274.590759,121.933708 
	C269.846222,127.266846 264.779602,132.589890 259.383514,137.983307 
	C259.054047,138.053696 258.886292,137.886475 258.881226,137.521683 
	C258.911957,136.765518 258.947723,136.374146 259.282806,135.845963 
	C260.395447,134.480911 261.208832,133.252670 262.266174,132.009796 
	C262.510132,131.995163 262.995117,131.934372 263.285645,131.808228 
	C264.710693,130.437973 265.845184,129.193848 266.979675,127.949730 
	C268.546173,126.493698 270.112671,125.037674 272.042786,123.178024 
	C272.596710,122.496758 272.787048,122.219109 272.977386,121.941460 
z"/>
<path fill="#FEF7CC" opacity="1.000000" stroke="none" 
	d="
M127.357750,269.990997 
	C128.327072,267.926514 129.634720,265.819794 131.304077,263.335693 
	C132.434372,262.296722 133.202927,261.635162 133.971466,260.973602 
	C133.971481,260.973602 134.000931,260.500061 134.330811,260.217224 
	C135.121704,259.308380 135.582703,258.682373 136.043701,258.056366 
	C137.476135,257.380615 138.908569,256.704865 140.688568,256.024902 
	C136.589432,260.663391 132.142746,265.306091 127.357750,269.990997 
z"/>
<path fill="#FEF7CC" opacity="1.000000" stroke="none" 
	d="
M152.042603,242.054642 
	C153.473328,241.379089 154.904037,240.703537 156.681793,240.021973 
	C152.584503,244.660187 148.140198,249.304428 143.357666,253.990936 
	C144.327087,251.926483 145.634735,249.819778 147.304108,247.335678 
	C148.434387,246.296738 149.202972,245.635193 149.971542,244.973663 
	C149.971542,244.973663 150.001007,244.500107 150.330933,244.217194 
	C151.121429,243.307739 151.582016,242.681183 152.042603,242.054642 
z"/>
<path fill="#FEF7CC" opacity="1.000000" stroke="none" 
	d="
M166.881622,228.165833 
	C168.775482,226.635376 170.561386,225.331543 172.689758,224.022766 
	C168.584869,228.659546 164.137512,233.301270 159.351654,237.982819 
	C160.322830,235.919373 161.632477,233.816086 163.303864,231.335587 
	C164.435837,230.298462 165.206070,229.638535 165.976288,228.978607 
	C166.242081,228.783218 166.507874,228.587845 166.881622,228.165833 
z"/>
<path fill="#FEF7CC" opacity="1.000000" stroke="none" 
	d="
M191.348297,205.975342 
	C191.900574,204.538361 192.791199,203.061646 193.828735,201.289154 
	C193.975647,200.993378 193.994629,200.994049 194.292236,200.854980 
	C196.391312,198.808945 198.192780,196.901962 199.993652,194.985535 
	C199.993057,194.976074 199.980743,194.951477 199.980743,194.951477 
	C201.434464,193.974838 202.888199,192.998215 204.678101,192.015442 
	C200.571732,196.651428 196.129196,201.293533 191.348297,205.975342 
z"/>
<path fill="#FEF7CC" opacity="1.000000" stroke="none" 
	d="
M111.372498,286.013824 
	C111.594002,284.900360 112.153847,283.742126 112.855255,282.283264 
	C116.776344,278.665466 120.555870,275.348297 124.685951,272.026031 
	C120.594620,276.670288 116.152733,281.319672 111.372498,286.013824 
z"/>
<path fill="#FEF7CC" opacity="1.000000" stroke="none" 
	d="
M183.981537,210.954971 
	C185.434998,209.977203 186.888458,208.999420 188.678101,208.015472 
	C184.573822,212.652969 180.133362,217.296646 175.354004,221.983215 
	C175.579132,220.880676 176.143112,219.735245 177.152863,218.152832 
	C179.731003,215.476105 181.863388,213.236374 183.994492,210.987747 
	C183.993210,210.978851 183.981537,210.954971 183.981537,210.954971 
z"/>
<path fill="#FEF7CC" opacity="1.000000" stroke="none" 
	d="
M294.021637,100.023849 
	C297.091187,97.689110 300.160706,95.354362 303.569183,92.994041 
	C299.815277,97.276375 295.722473,101.584282 291.286438,105.901917 
	C290.944183,105.486603 290.945099,105.061554 291.256409,104.177849 
	C292.385040,102.487419 293.203339,101.255638 294.021637,100.023849 
z"/>
<path fill="#FEF7CC" opacity="1.000000" stroke="none" 
	d="
M170.887177,295.109833 
	C171.595245,295.655579 172.359467,296.787933 172.277740,296.852722 
	C169.170990,299.314514 165.986557,301.678253 162.454819,304.052765 
	C164.914352,301.099823 167.731598,298.149200 170.887177,295.109833 
z"/>
<path fill="#FEFBE4" opacity="1.000000" stroke="none" 
	d="
M323.989380,36.379215 
	C324.412811,36.018875 324.834778,36.026665 325.572357,36.035675 
	C326.524902,36.589645 327.161835,37.142399 327.879028,38.012428 
	C326.501556,39.766724 325.043854,41.203735 323.586151,42.640747 
	C323.184082,42.243217 322.782013,41.845684 322.379944,41.448151 
	C322.915924,39.881218 323.451935,38.314281 323.989380,36.379215 
z"/>
<path fill="#FEF7CC" opacity="1.000000" stroke="none" 
	d="
M333.987366,46.012459 
	C333.880096,45.693775 333.691132,45.434662 333.078308,44.840267 
	C331.816589,43.638573 330.897064,42.831738 329.977570,42.024906 
	C329.954071,41.617649 329.930542,41.210388 329.906708,40.498512 
	C332.232239,42.243126 334.558105,44.292358 336.601196,46.658051 
	C335.541412,46.653828 334.764374,46.333145 333.987366,46.012459 
z"/>
<path fill="#FEF7CC" opacity="1.000000" stroke="none" 
	d="
M310.021759,84.024147 
	C310.737396,83.992378 311.453003,83.960609 312.525635,83.928329 
	C311.125549,85.909225 309.368469,87.890617 307.268188,89.874161 
	C306.949341,89.162941 306.973724,88.449585 307.347046,87.337997 
	C308.471252,85.967903 309.246490,84.996025 310.021759,84.024147 
z"/>
<path fill="#FEF7CC" opacity="1.000000" stroke="none" 
	d="
M326.979126,67.980614 
	C327.399109,67.959435 327.819061,67.938263 328.553558,67.918427 
	C327.116791,69.904770 325.365479,71.889771 323.270996,73.878166 
	C322.951233,73.166893 322.974670,72.452225 323.337402,71.343620 
	C324.777527,69.959991 325.878326,68.970306 326.979126,67.980614 
z"/>
<path fill="#FEF3B7" opacity="1.000000" stroke="none" 
	d="
M269.721313,196.157761 
	C268.505402,197.994812 266.960022,199.917374 265.041351,201.786804 
	C266.242706,199.903534 267.817291,198.073410 269.721313,196.157761 
z"/>
<path fill="#FEF3B7" opacity="1.000000" stroke="none" 
	d="
M263.722351,202.145248 
	C262.298706,204.070724 260.546722,206.058426 258.430603,208.046753 
	C259.842316,206.100754 261.618164,204.154114 263.722351,202.145248 
z"/>
<path fill="#FEF3B7" opacity="1.000000" stroke="none" 
	d="
M253.721252,212.157837 
	C252.505676,213.995193 250.960632,215.918106 249.042297,217.787811 
	C250.243286,215.904205 251.817551,214.073792 253.721252,212.157837 
z"/>
<path fill="#FEF3B7" opacity="1.000000" stroke="none" 
	d="
M279.720947,186.143509 
	C278.297546,188.068710 276.546143,190.057388 274.430603,192.046738 
	C275.841949,190.100586 277.617432,188.153793 279.720947,186.143509 
z"/>
<path fill="#FEF3B7" opacity="1.000000" stroke="none" 
	d="
M205.735901,260.168457 
	C204.517014,262.008514 202.972809,263.927460 201.056396,265.795532 
	C202.259659,263.912201 203.835144,262.079773 205.735901,260.168457 
z"/>
<path fill="#FEF3B7" opacity="1.000000" stroke="none" 
	d="
M189.735901,276.168457 
	C188.517044,278.008423 186.972900,279.927307 185.056564,281.795532 
	C186.259781,279.912323 187.835205,278.079865 189.735901,276.168457 
z"/>
<path fill="#FEF7CC" opacity="1.000000" stroke="none" 
	d="
M315.272034,81.878265 
	C316.360687,80.260338 317.790466,78.638763 319.555786,76.990173 
	C318.465302,78.600319 317.039246,80.237473 315.272034,81.878265 
z"/>
<path fill="#FEFBE4" opacity="1.000000" stroke="none" 
	d="
M333.991455,46.384651 
	C334.764374,46.333145 335.541412,46.653828 336.633667,46.995747 
	C337.235504,47.251812 337.522095,47.486637 337.854492,48.003162 
	C336.964203,48.781010 336.028168,49.277161 335.092133,49.773308 
	C334.726624,48.767818 334.361084,47.762333 333.991455,46.384651 
z"/>
<path fill="#FEF3B7" opacity="1.000000" stroke="none" 
	d="
M215.734558,250.162170 
	C214.642990,251.749359 213.227997,253.400528 211.447937,255.058960 
	C212.525620,253.452835 213.968369,251.839493 215.734558,250.162170 
z"/>
<path fill="#FEF3B7" opacity="1.000000" stroke="none" 
	d="
M359.691284,106.064575 
	C358.950928,107.382652 357.869293,108.707558 356.417267,110.031479 
	C357.147919,108.710800 358.248962,107.391106 359.691284,106.064575 
z"/>
<path fill="#FEF3B7" opacity="1.000000" stroke="none" 
	d="
M199.736252,266.164185 
	C198.644302,267.751526 197.228607,269.401611 195.447906,271.058960 
	C196.526077,269.453125 197.969299,267.840027 199.736252,266.164185 
z"/>
<path fill="#FEF3B7" opacity="1.000000" stroke="none" 
	d="
M327.702209,138.069901 
	C326.956177,139.390656 325.875305,140.714264 324.424744,142.038269 
	C325.159149,140.716690 326.263245,139.394730 327.702209,138.069901 
z"/>
<path fill="#FEF3B7" opacity="1.000000" stroke="none" 
	d="
M247.715271,218.090912 
	C246.972763,219.411972 245.895126,220.729492 244.450836,222.052322 
	C245.182831,220.734222 246.281494,219.410812 247.715271,218.090912 
z"/>
<path fill="#FEF3B7" opacity="1.000000" stroke="none" 
	d="
M343.702087,122.069443 
	C342.956116,123.390198 341.875305,124.714050 340.424774,126.038284 
	C341.159119,124.716637 342.263153,123.394592 343.702087,122.069443 
z"/>
<path fill="#FEF3B7" opacity="1.000000" stroke="none" 
	d="
M231.714172,234.089661 
	C230.972015,235.410538 229.894806,236.728760 228.450882,238.052307 
	C229.182480,236.734085 230.280792,235.410553 231.714172,234.089661 
z"/>
<path fill="#FEF3B7" opacity="1.000000" stroke="none" 
	d="
M295.722412,170.134705 
	C294.962372,171.395096 293.879456,172.716949 292.427246,174.039566 
	C293.171814,172.758942 294.285675,171.477554 295.722412,170.134705 
z"/>
<path fill="#FEF7CC" opacity="1.000000" stroke="none" 
	d="
M332.283783,64.884216 
	C333.035461,63.592327 334.126160,62.297882 335.551666,60.973915 
	C334.798584,62.256821 333.710693,63.569244 332.283783,64.884216 
z"/>
<path fill="#FEF3B7" opacity="1.000000" stroke="none" 
	d="
M311.722534,154.135147 
	C310.962463,155.395523 309.879517,156.717163 308.427246,158.039551 
	C309.171844,156.759018 310.285736,155.477707 311.722534,154.135147 
z"/>
<path fill="#FEF3B7" opacity="1.000000" stroke="none" 
	d="
M315.681305,150.058136 
	C315.142731,151.300598 314.260986,152.561325 313.017822,153.773758 
	C313.550354,152.509109 314.444244,151.292755 315.681305,150.058136 
z"/>
<path fill="#FEF3B7" opacity="1.000000" stroke="none" 
	d="
M363.674652,102.048515 
	C363.133820,103.290001 362.250458,104.552994 361.004700,105.763954 
	C361.538910,104.497948 362.435516,103.283989 363.674652,102.048515 
z"/>
<path fill="#FEF3B7" opacity="1.000000" stroke="none" 
	d="
M347.679810,118.055504 
	C347.138550,119.297981 346.253906,120.558220 345.007141,121.766678 
	C345.542175,120.501015 346.439301,119.287140 347.679810,118.055504 
z"/>
<path fill="#FEF3B7" opacity="1.000000" stroke="none" 
	d="
M283.681152,182.058243 
	C283.144348,183.301178 282.264221,184.562500 281.023010,185.777298 
	C281.553864,184.512726 282.445862,183.294678 283.681152,182.058243 
z"/>
<path fill="#FEF3B7" opacity="1.000000" stroke="none" 
	d="
M183.744568,282.169189 
	C182.988205,283.423370 181.913376,284.738678 180.473984,286.062927 
	C181.214996,284.791351 182.320541,283.510834 183.744568,282.169189 
z"/>
<path fill="#FEF3B7" opacity="1.000000" stroke="none" 
	d="
M331.681488,134.057983 
	C331.139679,135.299347 330.254883,136.558975 329.008240,137.767090 
	C329.543762,136.502472 330.441162,135.289368 331.681488,134.057983 
z"/>
<path fill="#FEF3B7" opacity="1.000000" stroke="none" 
	d="
M299.686646,166.066193 
	C299.145935,167.307800 298.261719,168.564972 297.016357,169.773514 
	C297.551147,168.510513 298.447144,167.296127 299.686646,166.066193 
z"/>
<path fill="#FEF7CC" opacity="1.000000" stroke="none" 
	d="
M341.243042,55.760178 
	C340.918854,54.523987 340.927155,53.217918 340.932922,51.520004 
	C343.510162,52.314514 343.742523,53.832771 341.243042,55.760178 
z"/>
<path fill="#FEF3B7" opacity="1.000000" stroke="none" 
	d="
M337.703247,128.077972 
	C337.269592,129.039566 336.499084,130.013885 335.393860,131.012604 
	C335.828247,130.054916 336.597351,129.072800 337.703247,128.077972 
z"/>
<path fill="#FEF3B7" opacity="1.000000" stroke="none" 
	d="
M321.703278,144.077942 
	C321.269592,145.039581 320.499115,146.013901 319.393860,147.012604 
	C319.828217,146.054871 320.597321,145.072754 321.703278,144.077942 
z"/>
<path fill="#FEF3B7" opacity="1.000000" stroke="none" 
	d="
M210.755203,255.152756 
	C210.506180,255.994781 209.946564,256.906616 209.018951,257.767303 
	C209.248840,256.884949 209.846725,256.053741 210.755203,255.152756 
z"/>
<path fill="#FEF3B7" opacity="1.000000" stroke="none" 
	d="
M218.719406,247.119690 
	C218.491196,247.969452 217.953049,248.896103 217.046051,249.782776 
	C217.254623,248.894043 217.832047,248.045303 218.719406,247.119690 
z"/>
<path fill="#FEF3B7" opacity="1.000000" stroke="none" 
	d="
M194.755219,271.152710 
	C194.506210,271.994751 193.946594,272.906586 193.018967,273.767273 
	C193.248856,272.884949 193.846741,272.053741 194.755219,271.152710 
z"/>
<path fill="#FEF3B7" opacity="1.000000" stroke="none" 
	d="
M242.747330,223.153351 
	C242.497879,223.994064 241.938934,224.905045 241.011719,225.762466 
	C241.241577,224.880478 241.839706,224.052048 242.747330,223.153351 
z"/>
<path fill="#FEF3B7" opacity="1.000000" stroke="none" 
	d="
M226.747314,239.153351 
	C226.497864,239.994064 225.938919,240.905029 225.011719,241.762466 
	C225.241592,240.880493 225.839706,240.052048 226.747314,239.153351 
z"/>
<path fill="#FEF3B7" opacity="1.000000" stroke="none" 
	d="
M234.718140,231.117798 
	C234.487228,231.966690 233.946793,232.892822 233.036896,233.776047 
	C233.247849,232.887131 233.828232,232.041092 234.718140,231.117798 
z"/>
<path fill="#FEF7CC" opacity="1.000000" stroke="none" 
	d="
M337.251953,59.856586 
	C337.356537,59.239441 337.781097,58.622902 338.505493,57.959721 
	C338.394226,58.561119 337.983093,59.209156 337.251953,59.856586 
z"/>
<path fill="#FEF7CC" opacity="1.000000" stroke="none" 
	d="
M329.242889,67.860764 
	C329.363159,67.244873 329.804779,66.626144 330.553192,65.970642 
	C330.428070,66.575226 329.996155,67.216576 329.242889,67.860764 
z"/>
<path fill="#FEF7CC" opacity="1.000000" stroke="none" 
	d="
M313.252655,83.874298 
	C313.374054,83.256157 313.817932,82.632462 314.571045,81.969780 
	C314.445251,82.576775 314.010193,83.222771 313.252655,83.874298 
z"/>
<path fill="#FEF7CC" opacity="1.000000" stroke="none" 
	d="
M305.281189,91.876144 
	C305.393311,91.258408 305.824738,90.633308 306.564545,89.967545 
	C306.448792,90.574173 306.024628,91.221481 305.281189,91.876144 
z"/>
<path fill="#FEF7CC" opacity="1.000000" stroke="none" 
	d="
M321.279602,75.872513 
	C321.393982,75.254906 321.827606,74.631638 322.569702,73.968857 
	C322.451721,74.575180 322.025299,75.221016 321.279602,75.872513 
z"/>
<path fill="#FEF3B7" opacity="1.000000" stroke="none" 
	d="
M352.712036,113.070969 
	C352.587341,113.694733 352.140991,114.336258 351.376099,115.006775 
	C351.501801,114.386749 351.946075,113.737740 352.712036,113.070969 
z"/>
<path fill="#FEFEF9" opacity="1.000000" stroke="none" 
	d="
M251.631744,141.024155 
	C250.893784,142.911118 249.748535,144.785019 248.230377,146.436401 
	C245.672348,143.381287 242.174988,142.818451 240.277618,145.002716 
	C239.068771,146.394379 240.514893,150.129669 240.871323,152.800659 
	C240.921021,153.173080 241.548599,153.468384 241.908676,153.799377 
	C240.186798,154.877365 238.464905,155.955353 236.390106,157.036194 
	C234.761124,153.928940 233.485046,150.818848 232.341446,148.031616 
	C234.862122,144.694443 237.564514,140.752304 240.746231,137.245010 
	C241.309631,136.623947 243.942017,137.626846 245.491013,138.216232 
	C247.470108,138.969254 249.319290,140.063751 251.631744,141.024155 
z"/>
<path fill="#FEFEF9" opacity="1.000000" stroke="none" 
	d="
M235.632721,157.024170 
	C234.893768,158.911102 233.748520,160.785004 232.230377,162.436401 
	C229.364670,161.635361 226.871902,161.056824 224.379120,160.478302 
	C224.210541,162.895981 223.947067,165.313034 223.930801,167.731735 
	C223.925873,168.464417 224.604950,169.201675 224.970718,169.936844 
	C223.560791,170.969086 222.150848,172.001328 220.389053,173.036316 
	C218.766083,169.934158 217.494980,166.829254 216.223877,163.724365 
	C216.616150,164.528564 217.008438,165.332764 217.400711,166.136963 
	C221.146118,162.165848 224.891525,158.194717 228.636917,154.223602 
	C227.946915,153.718903 227.256912,153.214203 226.566910,152.709488 
	C229.453430,154.143372 232.339935,155.577255 235.632721,157.024170 
z"/>
<path fill="#FEFEF9" opacity="1.000000" stroke="none" 
	d="
M256.970886,137.936890 
	C255.560913,138.969116 254.150925,140.001358 252.389053,141.036316 
	C250.778351,137.942673 249.519531,134.846298 248.353516,131.978180 
	C250.888687,128.651947 253.745956,124.687294 256.937958,121.013466 
	C257.299377,120.597504 259.545441,121.819069 260.573303,122.647095 
	C256.744415,123.115761 256.996552,125.638237 256.672485,128.178650 
	C253.426605,131.755035 255.497620,134.826431 256.970886,137.936890 
z"/>
<path fill="#FDFFF8" opacity="1.000000" stroke="none" 
	d="
M288.805359,105.613235 
	C288.484802,106.545120 287.992584,107.149361 287.225128,107.871780 
	C285.054382,105.743904 282.966888,103.622612 281.378021,101.177338 
	C280.888550,100.424011 281.453796,98.578407 282.105072,97.619263 
	C282.628174,96.848869 284.324921,96.046173 284.938354,96.359413 
	C285.874420,96.837410 286.527527,98.191490 286.937073,99.307114 
	C287.648956,101.246231 288.083160,103.287285 288.805359,105.613235 
z"/>
<path fill="#FDFFF8" opacity="1.000000" stroke="none" 
	d="
M272.805542,121.613525 
	C272.787048,122.219109 272.596710,122.496758 272.173035,122.883141 
	C269.647461,120.795235 267.175079,118.740211 265.232208,116.268898 
	C264.890228,115.833893 266.764160,113.656792 267.614746,112.284210 
	C268.737427,113.300613 270.248138,114.119530 270.889984,115.380646 
	C271.805206,117.178970 272.083405,119.301529 272.805542,121.613525 
z"/>
<path fill="#FEFEF8" opacity="1.000000" stroke="none" 
	d="
M325.324890,64.258904 
	C324.136292,64.086372 323.206848,64.266579 322.518311,63.939556 
	C321.325165,63.372860 319.740753,62.699863 319.347290,61.676605 
	C319.037750,60.871609 320.075165,58.714321 320.869293,58.505066 
	C322.230988,58.146263 324.222748,58.377483 325.306366,59.204388 
	C326.778839,60.328049 327.645966,62.245041 329.305176,64.566963 
	C327.613312,64.480972 326.652924,64.432159 325.324890,64.258904 
z"/>
<path fill="#FDFFF8" opacity="1.000000" stroke="none" 
	d="
M257.000000,127.999695 
	C256.996552,125.638237 256.744415,123.115761 260.614502,123.006439 
	C262.890320,124.452904 264.780609,125.905800 266.825317,127.654221 
	C265.845184,129.193848 264.710693,130.437973 263.279236,131.424316 
	C262.647705,126.976097 259.419434,128.251846 257.000000,127.999695 
z"/>
<path fill="#FEFBE4" opacity="1.000000" stroke="none" 
	d="
M277.685394,116.047226 
	C277.203339,117.255623 276.385040,118.487396 275.265839,119.858742 
	C275.759674,118.689072 276.554413,117.379837 277.685394,116.047226 
z"/>
<path fill="#FEFBE4" opacity="1.000000" stroke="none" 
	d="
M293.685425,100.047211 
	C293.203339,101.255638 292.385040,102.487419 291.265808,103.858749 
	C291.759644,102.689049 292.554413,101.379807 293.685425,100.047211 
z"/>
<path fill="#FEFBE4" opacity="1.000000" stroke="none" 
	d="
M326.616730,67.989662 
	C325.878326,68.970306 324.777527,69.959991 323.350159,70.985580 
	C324.100525,70.013885 325.177429,69.006294 326.616730,67.989662 
z"/>
<path fill="#FEFBE4" opacity="1.000000" stroke="none" 
	d="
M309.678711,84.049988 
	C309.246490,84.996025 308.471252,85.967903 307.359863,86.980576 
	C307.794342,86.039528 308.565002,85.057671 309.678711,84.049988 
z"/>
<path fill="#FEFBE4" opacity="1.000000" stroke="none" 
	d="
M329.991730,42.392941 
	C330.897064,42.831738 331.816589,43.638573 332.861328,44.729530 
	C331.993011,44.262760 330.999451,43.511868 329.991730,42.392941 
z"/>
<path fill="#FEFBE4" opacity="1.000000" stroke="none" 
	d="
M133.619629,260.985474 
	C133.202927,261.635162 132.434372,262.296722 131.347961,262.992615 
	C131.776001,262.350403 132.521896,261.673859 133.619629,260.985474 
z"/>
<path fill="#FEFBE4" opacity="1.000000" stroke="none" 
	d="
M149.619705,244.985474 
	C149.202972,245.635193 148.434387,246.296738 147.347961,246.992584 
	C147.776031,246.350372 148.521957,245.673828 149.619705,244.985474 
z"/>
<path fill="#FEFBE4" opacity="1.000000" stroke="none" 
	d="
M165.623932,228.988617 
	C165.206070,229.638535 164.435837,230.298462 163.347900,230.992691 
	C163.777313,230.350876 164.524429,229.674744 165.623932,228.988617 
z"/>
<path fill="#FEFBE4" opacity="1.000000" stroke="none" 
	d="
M151.715714,242.077393 
	C151.582016,242.681183 151.121429,243.307739 150.345673,243.980408 
	C150.483276,243.384415 150.936050,242.742279 151.715714,242.077393 
z"/>
<path fill="#FEFBE4" opacity="1.000000" stroke="none" 
	d="
M135.716690,258.078461 
	C135.582703,258.682373 135.121704,259.308380 134.345581,259.980469 
	C134.483521,259.384521 134.936600,258.742554 135.716690,258.078461 
z"/>
<path fill="#FDFEF8" opacity="1.000000" stroke="none" 
	d="
M338.165680,249.105759 
	C339.669220,247.211136 340.966187,245.475266 342.620941,244.205765 
	C343.413452,243.597748 344.883545,243.872940 346.046753,243.748108 
	C345.819916,244.855484 345.883698,246.159256 345.298828,247.024719 
	C344.395905,248.360931 343.065186,249.413773 341.886902,250.556915 
	C340.002045,252.385590 338.711456,252.072281 338.165680,249.105759 
z"/>
<path fill="#FDFEF8" opacity="1.000000" stroke="none" 
	d="
M296.809662,291.151215 
	C297.363037,292.357849 298.108765,293.837189 297.654083,294.613617 
	C296.769775,296.123749 295.318024,297.379211 293.890259,298.461823 
	C293.139099,299.031372 291.942291,299.013153 290.946716,299.260315 
	C290.936462,298.093079 290.435730,296.494568 291.010101,295.841400 
	C292.584991,294.050537 294.611694,292.657074 296.809662,291.151215 
z"/>
<path fill="#FDFEF8" opacity="1.000000" stroke="none" 
	d="
M314.496094,276.296448 
	C312.814148,278.820648 311.000366,281.077942 309.060699,283.221344 
	C308.750610,283.563995 307.649384,283.675293 307.314087,283.402222 
	C306.746826,282.940186 306.188690,282.092316 306.174500,281.395538 
	C306.130219,279.226044 311.976746,275.438660 314.496094,276.296448 
z"/>
<path fill="#FDFEF8" opacity="1.000000" stroke="none" 
	d="
M354.165710,233.105774 
	C355.669250,231.211151 356.966278,229.475342 358.621033,228.205811 
	C359.413513,227.597794 360.883545,227.872910 362.046753,227.748077 
	C361.819916,228.855469 361.883698,230.159225 361.298859,231.024719 
	C360.395935,232.360931 359.065216,233.413773 357.886963,234.556915 
	C356.002075,236.385651 354.711517,236.072205 354.165710,233.105774 
z"/>
<path fill="#FDFEF8" opacity="1.000000" stroke="none" 
	d="
M328.029205,264.037933 
	C326.992493,265.122955 326.331085,266.093079 325.504425,266.892334 
	C325.077026,267.305603 324.210754,267.758453 323.801666,267.584534 
	C323.144653,267.305206 322.164459,266.122437 322.248810,266.008484 
	C323.941010,263.722870 325.683929,261.457062 327.645599,259.406281 
	C327.972534,259.064453 329.367523,259.744232 330.268982,259.951935 
	C330.018738,260.947784 329.851593,261.976349 329.478699,262.923920 
	C329.322174,263.321686 328.730072,263.547974 328.029205,264.037933 
z"/>
<path fill="#FDFEF8" opacity="1.000000" stroke="none" 
	d="
M374.024811,217.954224 
	C372.211700,220.479950 369.791199,219.841431 370.435242,217.747147 
	C371.220703,215.193115 374.246521,213.318649 376.376953,211.225204 
	C376.454834,211.148682 377.649506,211.800552 377.728821,212.224319 
	C377.865753,212.955963 377.780151,213.966614 377.349609,214.517807 
	C376.447571,215.672653 375.260620,216.604965 374.024811,217.954224 
z"/>
<path fill="#FDFDFB" opacity="1.000000" stroke="none" 
	d="
M193.963196,200.987442 
	C192.974030,199.752762 191.114777,198.434265 191.228470,197.316437 
	C191.396927,195.660248 192.711273,193.143280 193.998734,192.818161 
	C195.725037,192.382263 197.891312,193.688828 199.924713,194.599380 
	C199.980743,194.951477 199.993057,194.976074 199.624054,194.991364 
	C195.957626,195.645966 194.021332,197.481155 193.994629,200.994049 
	C193.994629,200.994049 193.975647,200.993378 193.963196,200.987442 
z"/>
<path fill="#FDFDFC" opacity="1.000000" stroke="none" 
	d="
M177.005234,216.001205 
	C176.082092,215.232025 174.246109,214.171158 174.383591,213.740921 
	C175.291336,210.900269 176.484528,207.853989 180.249786,208.150192 
	C181.503769,208.248825 182.665741,209.517288 183.925659,210.602966 
	C183.981537,210.954971 183.993210,210.978851 183.634048,210.991959 
	C181.184998,212.670441 179.095108,214.335815 177.005234,216.001205 
z"/>
<path fill="#FEFDFB" opacity="1.000000" stroke="none" 
	d="
M209.963074,184.986740 
	C206.324448,183.571411 206.210358,180.780304 208.084152,178.251160 
	C210.337418,175.209793 213.264374,174.998672 215.922089,178.589478 
	C215.977905,178.940186 215.993271,178.966934 215.621979,178.985870 
	C211.958374,179.649445 210.019928,181.482239 209.994522,184.993958 
	C209.994522,184.993958 209.975464,184.992935 209.963074,184.986740 
z"/>
<path fill="#FEFBE4" opacity="1.000000" stroke="none" 
	d="
M177.004303,216.334656 
	C179.095108,214.335815 181.184998,212.670441 183.635330,211.000854 
	C181.863388,213.236374 179.731003,215.476105 177.300812,217.858887 
	C177.003113,217.557327 177.003250,217.112717 177.004303,216.334656 
z"/>
<path fill="#FEFEFA" opacity="1.000000" stroke="none" 
	d="
M225.267166,169.936172 
	C224.604950,169.201675 223.925873,168.464417 223.930801,167.731735 
	C223.947067,165.313034 224.210541,162.895981 224.379120,160.478302 
	C226.871902,161.056824 229.364670,161.635361 231.921600,162.574554 
	C231.530121,163.277771 231.074509,163.620331 229.962311,164.024170 
	C228.531647,165.384552 227.757568,166.683655 226.983505,167.982773 
	C226.947723,168.374146 226.911942,168.765518 226.797333,169.438049 
	C226.333557,169.791321 225.948578,169.863419 225.267166,169.936172 
z"/>
<path fill="#FEFBE4" opacity="1.000000" stroke="none" 
	d="
M210.292145,184.854919 
	C210.019928,181.482239 211.958374,179.649445 215.619705,178.997330 
	C214.189072,180.898529 212.389435,182.807205 210.292145,184.854919 
z"/>
<path fill="#FEFEFA" opacity="1.000000" stroke="none" 
	d="
M242.114014,153.810898 
	C241.548599,153.468384 240.921021,153.173080 240.871323,152.800659 
	C240.514893,150.129669 239.068771,146.394379 240.277618,145.002716 
	C242.174988,142.818451 245.672348,143.381287 247.921585,146.574524 
	C247.530090,147.277740 247.074478,147.620300 245.962296,148.024170 
	C244.531662,149.384567 243.757584,150.683670 242.983505,151.982773 
	C242.947662,152.374710 242.911835,152.766632 242.797043,153.440094 
	C242.718094,153.721634 242.319336,153.822418 242.114014,153.810898 
z"/>
<path fill="#FEFBE4" opacity="1.000000" stroke="none" 
	d="
M227.282776,167.845963 
	C227.757568,166.683655 228.531647,165.384552 229.663971,164.054932 
	C229.208817,165.252670 228.395447,166.480911 227.282776,167.845963 
z"/>
<path fill="#FEFEFA" opacity="1.000000" stroke="none" 
	d="
M256.672485,128.178650 
	C259.419434,128.251846 262.647705,126.976097 262.988708,131.550476 
	C262.995117,131.934372 262.510132,131.995163 261.907928,132.040314 
	C260.531677,133.384567 259.757599,134.683670 258.983521,135.982773 
	C258.947723,136.374146 258.911957,136.765518 258.797363,137.438080 
	C258.333801,137.791565 257.949066,137.863876 257.267578,137.936523 
	C255.497620,134.826431 253.426605,131.755035 256.672485,128.178650 
z"/>
<path fill="#FEFBE4" opacity="1.000000" stroke="none" 
	d="
M243.282791,151.845978 
	C243.757584,150.683670 244.531662,149.384567 245.663971,148.054947 
	C245.208832,149.252686 244.395447,150.480927 243.282791,151.845978 
z"/>
<path fill="#FEFBE4" opacity="1.000000" stroke="none" 
	d="
M259.282806,135.845963 
	C259.757599,134.683670 260.531677,133.384567 261.663971,132.054947 
	C261.208832,133.252670 260.395447,134.480911 259.282806,135.845963 
z"/>
<path fill="#FEFBE4" opacity="1.000000" stroke="none" 
	d="
M194.292236,200.854980 
	C194.021332,197.481155 195.957626,195.645966 199.624634,195.000809 
	C198.192780,196.901962 196.391312,198.808945 194.292236,200.854980 
z"/>
</svg>